# Blender 4.1.1
# www.blender.org
o Ceiling_2
v -1.500000 2.500000 4.000000
v 1.500000 2.500000 4.000000
v -1.500000 2.500000 0.000000
v 1.500000 2.500000 0.000000
v 0.726375 3.157875 4.000000
v -0.726375 3.157875 4.000000
v -0.000000 3.258167 4.000000
v -0.726375 3.157875 0.000000
v 0.726375 3.157875 0.000000
v -0.000000 3.258167 0.000000
v -1.500000 2.500000 3.151516
v -1.500000 2.500000 0.848484
v 1.500000 2.500000 0.848484
v 1.500000 2.500000 3.151516
v 0.521512 3.186161 1.127431
v 0.521512 3.186161 2.872569
v -0.000000 3.258167 3.151516
v -0.000000 3.258167 0.848484
v -0.521513 3.186161 1.127431
v -0.521513 3.186161 2.872569
v 0.726375 3.157875 0.848484
v 0.726375 3.157875 3.151516
v -0.000000 3.258167 1.055615
v -0.726375 3.157875 0.848484
v -0.726375 3.157875 3.151516
v -0.000000 3.258167 2.944385
v 0.574255 3.178878 1.055615
v 0.574255 3.178878 2.944385
v -0.000000 3.258167 1.127431
v -0.574255 3.178878 1.055615
v -0.574255 3.178878 2.944385
v -0.000000 3.258167 2.872569
v -0.000000 3.486330 2.872569
v -0.000000 3.486330 1.127431
v 0.521512 3.414324 1.127431
v 0.521512 3.414324 2.872569
v -0.521513 3.414324 1.127431
v -0.521513 3.414324 2.872569
v 0.574255 3.131115 1.055615
v 0.574255 3.131115 2.944385
v -0.000000 3.210403 1.055615
v -0.574255 3.131115 1.055615
v -0.574255 3.131115 2.944385
v -0.000000 3.210403 2.944385
v 0.521512 3.138397 1.127431
v 0.521512 3.138397 2.872569
v -0.000000 3.210403 1.127431
v -0.521513 3.138397 1.127431
v -0.521513 3.138397 2.872569
v -0.000000 3.210403 2.872569
vn -0.6478 -0.7618 -0.0000
vn -0.1368 -0.9906 -0.0000
vn 0.1368 -0.9906 -0.0000
vn 0.6478 -0.7618 -0.0000
vn -0.0000 -0.0000 1.0000
vn -0.0000 -0.0000 -1.0000
vn 1.0000 -0.0000 -0.0000
vn -1.0000 -0.0000 -0.0000
vt 0.299025 0.181621
vt 0.299025 0.000244
vt 0.496479 0.000244
vt 0.496479 0.181621
vt 0.299025 0.855308
vt 0.143789 0.855308
vt 0.143789 0.673931
vt 0.299025 0.673931
vt 0.496479 0.673931
vt 0.496479 0.855308
vt 0.143789 0.181621
vt 0.143789 0.000244
vt 0.000244 0.181621
vt 0.000244 0.000244
vt 0.000244 0.855308
vt 0.000244 0.673931
vt 0.637598 0.673931
vt 0.637598 0.855308
vt 0.496967 0.855308
vt 0.496967 0.673931
vt 0.938161 0.515967
vt 0.986935 0.515967
vt 0.971542 0.627449
vt 0.922769 0.627449
vt 0.922769 0.627936
vt 0.971542 0.627936
vt 0.986935 0.739418
vt 0.938161 0.739418
vt 0.496967 0.181621
vt 0.637598 0.181621
vt 0.637598 0.000244
vt 0.496967 0.000244
vt 0.266515 0.225898
vt 0.266515 0.629653
vt 0.030305 0.225898
vt 0.143789 0.225898
vt 0.030305 0.629653
vt 0.143789 0.629653
vt 0.934253 0.123000
vt 0.944463 0.123000
vt 0.961412 0.245756
vt 0.951202 0.245756
vt 0.951202 0.000244
vt 0.961412 0.000244
vt 0.901861 0.404486
vt 0.912071 0.404486
vt 0.912071 0.777537
vt 0.901861 0.777537
vt 0.987422 0.404486
vt 0.997632 0.404486
vt 0.997632 0.808241
vt 0.987422 0.808241
vt 0.922769 0.850900
vt 0.912558 0.850900
vt 0.927951 0.739418
vt 0.978849 0.000244
vt 0.989059 0.000244
vt 0.972110 0.123000
vt 0.961900 0.123000
vt 0.741146 0.404486
vt 0.741146 0.777537
vt 0.638085 0.777537
vt 0.638085 0.404486
vt 0.852600 0.404486
vt 0.852600 0.777537
vt 0.922769 0.404486
vt 0.971542 0.404486
vt 0.853087 0.777537
vt 0.853087 0.404486
vt 0.923556 0.373295
vt 0.874782 0.373295
vt 0.874782 0.000244
vt 0.923556 0.000244
vt 0.971542 0.850900
vt 0.863023 0.015595
vt 0.874295 0.000244
vt 0.874295 0.403999
vt 0.863023 0.388647
vt 0.648508 0.015595
vt 0.638085 0.000244
vt 0.751569 0.000244
vt 0.751569 0.015595
vt 0.648508 0.388647
vt 0.638085 0.403999
vt 0.751569 0.388647
vt 0.751569 0.403999
vt 0.912558 0.627936
vt 0.989059 0.245756
vt 0.978849 0.245756
vt 0.933766 0.000244
vt 0.933766 0.373295
vt 0.989546 0.000244
vt 0.999756 0.000244
vt 0.999756 0.403999
vt 0.989546 0.403999
vt 0.927951 0.515967
vt 0.912558 0.404486
vt 0.912558 0.627449
s 0
f 21/1/1 9/2/1 4/3/1 13/4/1
f 5/5/2 7/6/2 17/7/2 22/8/2
f 5/5/1 22/8/1 14/9/1 2/10/1
f 21/1/2 18/11/2 10/12/2 9/2/2
f 18/11/3 24/13/3 8/14/3 10/12/3
f 7/6/3 6/15/3 25/16/3 17/7/3
f 12/17/4 3/18/4 8/19/4 24/20/4
f 13/4/1 14/9/1 22/8/1 21/1/1
f 29/21/5 34/22/5 37/23/5 19/24/5
f 20/25/6 38/26/6 33/27/6 32/28/6
f 24/20/4 25/29/4 11/30/4 12/17/4
f 1/31/4 11/30/4 25/29/4 6/32/4
f 27/33/2 21/1/2 22/8/2 28/34/2
f 30/35/3 24/13/3 18/11/3 23/36/3
f 31/37/3 25/16/3 24/13/3 30/35/3
f 26/38/3 17/7/3 25/16/3 31/37/3
f 23/36/2 18/11/2 21/1/2 27/33/2
f 28/34/2 22/8/2 17/7/2 26/38/2
f 23/39/6 41/40/6 42/41/6 30/42/6
f 27/43/6 39/44/6 41/40/6 23/39/6
f 20/45/7 49/46/7 48/47/7 19/48/7
f 28/49/7 40/50/7 39/51/7 27/52/7
f 16/53/6 46/54/6 50/55/6 32/28/6
f 31/56/5 43/57/5 44/58/5 26/59/5
f 34/60/3 33/61/3 38/62/3 37/63/3
f 35/64/2 36/65/2 33/61/2 34/60/2
f 15/66/5 35/67/5 34/22/5 29/21/5
f 19/48/7 37/68/7 38/69/7 20/45/7
f 16/70/8 36/71/8 35/72/8 15/73/8
f 32/28/6 33/27/6 36/74/6 16/53/6
f 45/75/2 39/76/2 40/77/2 46/78/2
f 48/79/3 42/80/3 41/81/3 47/82/3
f 49/83/3 43/84/3 42/80/3 48/79/3
f 50/85/3 44/86/3 43/84/3 49/83/3
f 47/82/2 41/81/2 39/76/2 45/75/2
f 46/78/2 40/77/2 44/86/2 50/85/2
f 32/28/6 50/55/6 49/87/6 20/25/6
f 26/59/5 44/58/5 40/88/5 28/89/5
f 15/73/8 45/90/8 46/91/8 16/70/8
f 30/92/8 42/93/8 43/94/8 31/95/8
f 29/21/5 47/96/5 45/97/5 15/66/5
f 19/24/5 48/98/5 47/96/5 29/21/5
