# Blender v3.1.2 OBJ File: ''
# www.blender.org
mtllib untitled.mtl
o Cube.001_Cube.004
v 6.406609 5.361288 -1.271380
v 6.406609 -4.699907 -1.271380
v 6.406609 5.361288 -1.896702
v 6.406609 -4.699907 -1.896702
v 7.031931 5.361288 -1.271380
v 7.031931 -4.699907 -1.271380
v 7.031931 5.361288 -1.896702
v 7.031931 -4.699907 -1.896702
v -6.438651 5.361288 -1.271380
v -6.438651 -4.699907 -1.271380
v -6.438651 5.361288 -1.896702
v -6.438651 -4.699907 -1.896702
v -5.813328 5.361288 -1.271380
v -5.813328 -4.699907 -1.271380
v -5.813328 5.361288 -1.896702
v -5.813328 -4.699907 -1.896702
v 8.160750 3.521985 -1.428813
v -8.583521 1.620137 -1.593327
v 8.232133 2.893462 -1.428111
v -8.512139 0.991614 -1.592626
v 8.157047 3.521985 -1.051809
v -8.587225 1.620137 -1.216324
v 8.228430 2.893462 -1.051108
v -8.515844 0.991614 -1.215622
v 8.233537 0.383580 -1.572330
v -8.611020 -0.142625 -1.474451
v 8.252656 -0.241781 -1.643768
v -8.591898 -0.767986 -1.545888
v 8.236807 0.343811 -1.223321
v -8.607749 -0.182394 -1.125441
v 8.255926 -0.281550 -1.294758
v -8.588628 -0.807755 -1.196879
vt 0.375000 0.000000
vt 0.375000 0.250000
vt 0.625000 0.250000
vt 0.625000 0.000000
vt 0.375000 0.500000
vt 0.625000 0.500000
vt 0.375000 0.750000
vt 0.625000 0.750000
vt 0.375000 1.000000
vt 0.625000 1.000000
vt 0.125000 0.500000
vt 0.125000 0.750000
vt 0.875000 0.750000
vt 0.875000 0.500000
vt 0.375000 0.000000
vt 0.375000 0.250000
vt 0.625000 0.250000
vt 0.625000 0.000000
vt 0.375000 0.500000
vt 0.625000 0.500000
vt 0.375000 0.750000
vt 0.625000 0.750000
vt 0.375000 1.000000
vt 0.625000 1.000000
vt 0.125000 0.500000
vt 0.125000 0.750000
vt 0.875000 0.750000
vt 0.875000 0.500000
vt 0.375000 0.000000
vt 0.375000 0.250000
vt 0.625000 0.250000
vt 0.625000 0.000000
vt 0.375000 0.500000
vt 0.625000 0.500000
vt 0.375000 0.750000
vt 0.625000 0.750000
vt 0.375000 1.000000
vt 0.625000 1.000000
vt 0.125000 0.500000
vt 0.125000 0.750000
vt 0.875000 0.750000
vt 0.875000 0.500000
vt 0.375000 0.000000
vt 0.375000 0.250000
vt 0.625000 0.250000
vt 0.625000 0.000000
vt 0.375000 0.500000
vt 0.625000 0.500000
vt 0.375000 0.750000
vt 0.625000 0.750000
vt 0.375000 1.000000
vt 0.625000 1.000000
vt 0.125000 0.500000
vt 0.125000 0.750000
vt 0.875000 0.750000
vt 0.875000 0.500000
vn -1.0000 0.0000 0.0000
vn 0.0000 0.0000 -1.0000
vn 1.0000 0.0000 0.0000
vn 0.0000 0.0000 1.0000
vn 0.0000 1.0000 0.0000
vn 0.0000 -1.0000 0.0000
vn 0.0098 -0.0000 -1.0000
vn 0.1128 -0.9936 0.0011
vn -0.0098 -0.0000 1.0000
vn -0.1128 0.9936 -0.0011
vn 0.9936 0.1129 0.0098
vn -0.9936 -0.1128 -0.0098
vn -0.0093 0.1132 -0.9935
vn 0.0304 -0.9931 -0.1134
vn 0.0093 -0.1132 0.9935
vn -0.0304 0.9931 0.1134
vn 0.9995 0.0312 -0.0058
vn -0.9995 -0.0312 0.0058
usemtl None
s off
f 1/1/1 3/2/1 4/3/1 2/4/1
f 3/2/2 7/5/2 8/6/2 4/3/2
f 7/5/3 5/7/3 6/8/3 8/6/3
f 5/7/4 1/9/4 2/10/4 6/8/4
f 3/11/5 1/12/5 5/7/5 7/5/5
f 8/6/6 6/8/6 2/13/6 4/14/6
f 9/15/1 11/16/1 12/17/1 10/18/1
f 11/16/2 15/19/2 16/20/2 12/17/2
f 15/19/3 13/21/3 14/22/3 16/20/3
f 13/21/4 9/23/4 10/24/4 14/22/4
f 11/25/5 9/26/5 13/21/5 15/19/5
f 16/20/6 14/22/6 10/27/6 12/28/6
f 17/29/7 19/30/7 20/31/7 18/32/7
f 19/30/8 23/33/8 24/34/8 20/31/8
f 23/33/9 21/35/9 22/36/9 24/34/9
f 21/35/10 17/37/10 18/38/10 22/36/10
f 19/39/11 17/40/11 21/35/11 23/33/11
f 24/34/12 22/36/12 18/41/12 20/42/12
f 25/43/13 27/44/13 28/45/13 26/46/13
f 27/44/14 31/47/14 32/48/14 28/45/14
f 31/47/15 29/49/15 30/50/15 32/48/15
f 29/49/16 25/51/16 26/52/16 30/50/16
f 27/53/17 25/54/17 29/49/17 31/47/17
f 32/48/18 30/50/18 26/55/18 28/56/18
