# Blender 4.1.1
# www.blender.org
o Wood_plank_4
v -0.100000 0.000000 0.508214
v 0.100000 0.000000 0.508214
v 0.128381 0.000000 -0.500000
v -0.100000 0.030000 0.508214
v 0.128381 0.030000 -0.500000
v -0.033333 0.000000 0.543577
v 0.033333 0.000000 0.543577
v -0.064417 0.000000 -0.533928
v 0.033333 0.030000 0.543577
v -0.064417 0.030000 -0.533928
v -0.075683 0.000000 0.000000
v -0.100000 0.000000 0.250000
v 0.100000 0.000000 0.250000
v 0.100000 0.000000 0.000000
v 0.100000 0.000000 -0.250000
v 0.100000 0.030000 0.250000
v 0.100000 0.030000 -0.250000
v -0.033333 0.030000 0.250000
v -0.027236 0.030000 0.000000
v -0.033333 0.030000 -0.250000
v 0.033333 0.030000 0.250000
v 0.033333 0.030000 0.000000
v 0.033333 0.030000 -0.250000
v -0.033333 0.000000 -0.250000
v -0.029720 0.000000 0.000000
v -0.033333 0.000000 0.250000
v 0.033333 0.000000 -0.250000
v 0.033333 0.000000 0.000000
v 0.033333 0.000000 0.250000
v 0.100000 0.030000 0.050575
v 0.100000 0.013614 0.000000
v 0.100000 0.030000 -0.063249
v 0.063549 0.030000 0.000000
v 0.080477 0.030000 0.518570
v 0.100000 0.007900 0.508214
v 0.100000 0.030000 0.486115
v -0.052918 0.030000 0.533189
v -0.033333 0.007831 0.543577
v -0.011165 0.030000 0.543577
v -0.033333 0.030000 0.521408
v -0.096794 0.000000 -0.217039
v -0.100000 0.000000 -0.283117
v -0.066883 0.000000 -0.250000
v -0.100000 0.030000 -0.283117
v -0.095750 0.030000 -0.217157
v -0.066883 0.030000 -0.250000
v -0.126545 0.000000 -0.497301
v -0.094177 0.000000 -0.533928
v -0.094177 0.030000 -0.533928
v -0.126545 0.030000 -0.497301
v -0.002113 0.000000 -0.512303
v 0.033333 0.000000 -0.462480
v -0.002113 0.030000 -0.512303
v 0.033333 0.030000 -0.462480
v 0.054762 0.000000 -0.483908
v 0.093611 0.000000 -0.500000
v 0.093611 0.030000 -0.500000
v 0.054762 0.030000 -0.483908
v 0.111359 0.007790 -0.451910
v 0.111359 0.037790 -0.451910
v 0.097169 0.007790 -0.354777
v 0.097169 0.037790 -0.354777
v -0.100000 0.030000 0.393778
v -0.087433 0.030000 0.250000
v -0.078555 0.030000 0.084267
v -0.100000 0.017433 0.250000
v -0.051906 0.030000 0.000000
v -0.075926 0.030000 -0.063947
v -0.071723 0.014791 0.000000
v -0.069672 0.030000 0.015615
vn 0.3279 -0.0000 -0.9447
vn -0.0000 1.0000 -0.0000
vn 0.9427 -0.0000 0.3337
vn -0.9924 -0.0000 0.1230
vn 1.0000 -0.0000 -0.0000
vn 0.3914 0.6507 0.6507
vn -0.0000 -1.0000 -0.0000
vn -0.9826 0.1507 -0.1085
vn -0.0793 0.9968 -0.0097
vn -0.0000 -0.0000 1.0000
vn -0.4686 -0.0000 0.8834
vn -1.0000 -0.0000 -0.0000
vn -0.0000 -0.0000 -1.0000
vn 0.3932 0.8747 -0.2834
vn 0.4686 -0.0000 0.8834
vn 0.3990 0.8876 0.2300
vn 0.7617 0.4582 0.4582
vn -0.5773 0.5774 0.5774
vn -0.9840 0.1398 0.1102
vn -0.7458 0.0117 -0.6661
vn -0.7071 -0.0000 0.7071
vn -0.7493 -0.0000 -0.6622
vn 0.8148 -0.0000 -0.5797
vn 0.0793 -0.9968 0.0097
vn -0.3827 -0.0000 -0.9239
vn -0.7071 -0.0000 -0.7071
vn 0.9895 -0.0000 0.1446
vn 0.9996 -0.0000 -0.0270
vn -0.7063 0.7063 -0.0489
vn -0.5935 0.7733 0.2229
vn -0.5005 0.6521 -0.5694
vt 0.536101 0.870358
vt 0.536101 0.920292
vt 0.508225 0.920292
vt 0.508225 0.870358
vt 0.329367 0.736987
vt 0.391209 0.738641
vt 0.385884 0.936002
vt 0.351755 0.981400
vt 0.293418 0.999941
vt 0.480350 0.027242
vt 0.473111 -0.000000
vt 0.500987 -0.000000
vt 0.508225 0.027242
vt 0.536101 0.344316
vt 0.536101 0.482452
vt 0.508225 0.482452
vt 0.508225 0.344316
vt 0.473111 0.748066
vt 0.473111 0.552563
vt 0.500987 0.552563
vt 0.500987 0.731333
vt 0.480452 0.748066
vt 0.348699 0.020468
vt 0.369819 0.000427
vt 0.411096 0.001531
vt 0.403739 0.274218
vt 0.341898 0.272565
vt 0.330828 0.009040
vt 0.350318 -0.000000
vt 0.143664 0.737094
vt 0.179959 1.000000
vt 0.121525 0.981543
vt 0.087299 0.936194
vt 0.081744 0.738837
vt 0.508228 0.327755
vt 0.508225 0.157919
vt 0.524424 0.157873
vt 0.536123 0.274156
vt 0.536132 0.322338
vt 0.521986 0.330487
vt 0.453050 0.740295
vt 0.447424 0.837502
vt 0.458153 0.928077
vt 0.473111 0.973210
vt 0.440858 0.972347
vt 0.405224 0.956437
vt 0.122916 -0.000000
vt 0.130592 0.272682
vt 0.068671 0.274425
vt 0.060996 0.001743
vt 0.133772 0.504982
vt 0.075208 0.506631
vt 0.185761 0.031102
vt 0.192512 0.270938
vt 0.176462 0.503780
vt 0.508225 0.605585
vt 0.508225 0.555770
vt 0.536101 0.555770
vt 0.536101 0.589020
vt 0.515502 0.605585
vt 0.397474 0.506430
vt 0.341289 0.504927
vt 0.508225 0.674931
vt 0.536101 0.625956
vt 0.536101 0.674931
vt 0.508318 0.000078
vt 0.536193 0.000000
vt 0.536152 0.069952
vt 0.564069 0.089496
vt 0.564111 0.110322
vt 0.536236 0.110307
vt 0.536193 0.089480
vt 0.201745 0.704819
vt 0.174826 0.736217
vt 0.294521 0.563116
vt 0.318404 0.504315
vt 0.298246 0.736155
vt 0.272291 0.704933
vt 0.425503 0.507179
vt 0.457730 0.566832
vt 0.460582 0.461107
vt 0.460101 0.508174
vt 0.508225 0.525488
vt 0.515566 0.525488
vt 0.536101 0.534356
vt 0.473111 0.363279
vt 0.485761 0.363279
vt 0.500987 0.401571
vt 0.473111 0.173996
vt 0.500987 0.173996
vt 0.500987 0.315392
vt 0.006751 0.276168
vt -0.000000 0.036332
vt 0.013287 0.508374
vt 0.019824 0.740581
vt 0.465580 0.275872
vt 0.454201 0.025928
vt 0.473111 0.036154
vt 0.471497 0.056558
vt 0.536101 0.617829
vt 0.536101 0.810583
vt 0.522358 0.813542
vt 0.508225 0.775082
vt 0.508225 0.675645
vt 0.536193 0.155363
vt 0.564071 0.156156
vt 0.564069 0.196433
vt 0.536193 0.196443
vt 0.536101 0.525488
vt 0.508225 0.525488
vt 0.266696 0.766094
vt 0.265812 0.999202
vt 0.236705 0.964379
vt 0.564069 0.155363
vt 0.536193 0.155347
vt 0.206451 0.766110
vt 0.236705 0.964356
vt 0.207600 0.999222
vt 0.508225 0.813542
vt 0.536101 0.813542
vt 0.564069 0.000029
vt 0.564106 0.024362
vt 0.536231 0.024332
vt 0.536193 -0.000000
vt 0.067957 0.956657
vt 0.032294 0.972620
vt 0.000000 0.973529
vt 0.014504 0.928412
vt 0.025145 0.837821
vt 0.564104 0.061386
vt 0.536229 0.061357
vt 0.564069 0.089480
vt 0.536193 0.089451
vt 0.480350 0.093141
vt 0.508225 0.093141
vt 0.283660 0.137363
vt 0.291714 0.271222
vt 0.295796 0.425383
vt 0.280659 0.270980
vt 0.286528 0.031070
vt 0.300751 0.503908
vt 0.302316 0.489371
vt 0.536193 0.344316
s 0
f 51/1/1 8/2/1 10/3/1 53/4/1
f 20/5/2 23/6/2 54/7/2 53/8/2 10/9/2
f 59/10/3 3/11/3 5/12/3 60/13/3
f 47/14/4 42/15/4 44/16/4 50/17/4
f 2/18/5 13/19/5 16/20/5 36/21/5 35/22/5
f 40/23/2 39/24/2 9/25/2 21/26/2 18/27/2
f 37/28/6 38/29/6 40/23/6
f 24/30/7 8/31/7 51/32/7 52/33/7 27/34/7
f 11/35/8 12/36/8 66/37/8 65/38/8 70/39/8 69/40/8
f 23/6/9 17/41/9 62/42/9 60/43/9 5/44/9 57/45/9 58/46/9 54/7/9
f 6/47/7 26/48/7 29/49/7 7/50/7
f 26/48/7 25/51/7 28/52/7 29/49/7
f 25/51/7 24/30/7 27/34/7 28/52/7
f 1/53/7 12/54/7 26/48/7 6/47/7
f 12/54/7 11/55/7 25/51/7 26/48/7
f 6/56/10 7/57/10 9/58/10 39/59/10 38/60/10
f 18/27/2 21/26/2 22/61/2 19/62/2
f 19/62/2 22/61/2 23/6/2 20/5/2
f 1/63/11 6/56/11 38/60/11 37/64/11 4/65/11
f 12/36/12 1/66/12 4/67/12 63/68/12 66/37/12
f 8/69/13 48/70/13 49/71/13 10/72/13
f 11/55/7 41/73/7 43/74/7 24/30/7 25/51/7
f 68/75/2 67/76/2 19/62/2 20/5/2 46/77/2 45/78/2
f 22/61/2 33/79/2 32/80/2 17/41/2 23/6/2
f 30/81/14 31/82/14 33/79/14
f 7/57/15 2/83/15 35/84/15 34/85/15 9/58/15
f 13/19/5 14/86/5 31/87/5 30/88/5 16/20/5
f 14/86/5 15/89/5 17/90/5 32/91/5 31/87/5
f 7/50/7 29/49/7 13/92/7 2/93/7
f 29/49/7 28/52/7 14/94/7 13/92/7
f 28/52/7 27/34/7 15/95/7 14/94/7
f 31/82/16 32/80/16 33/79/16
f 21/26/2 16/96/2 30/81/2 33/79/2 22/61/2
f 34/97/17 35/98/17 36/99/17
f 9/25/2 34/97/2 36/99/2 16/96/2 21/26/2
f 38/60/18 39/59/18 40/100/18
f 41/65/19 11/101/19 69/102/19 68/103/19 45/104/19
f 41/105/20 45/106/20 46/107/20 43/108/20
f 43/109/21 46/110/21 44/16/21 42/15/21
f 44/111/2 46/77/2 20/5/2 10/9/2 49/112/2 50/113/2
f 49/71/22 48/70/22 47/114/22 50/115/22
f 43/74/7 42/116/7 47/117/7 48/118/7 8/31/7 24/30/7
f 51/1/23 53/4/23 54/119/23 52/120/23
f 3/121/13 56/122/13 57/123/13 5/124/13
f 27/34/24 52/33/24 55/125/24 56/126/24 3/127/24 59/128/24 61/129/24 15/95/24
f 57/123/25 56/122/25 55/130/25 58/131/25
f 52/132/26 54/133/26 58/131/26 55/130/26
f 61/134/27 59/10/27 60/13/27 62/135/27
f 15/89/28 61/134/28 62/135/28 17/90/28
f 63/136/29 64/137/29 65/138/29 66/139/29
f 4/140/2 37/28/2 40/23/2 18/27/2 64/137/2 63/136/2
f 67/76/30 68/75/30 69/141/30
f 65/138/2 64/137/2 18/27/2 19/62/2 67/76/2 70/142/2
f 70/39/31 67/143/31 69/40/31
