# Blender 4.1.1
# www.blender.org
o Wood_Plank_3
v -0.071164 0.000000 0.621909
v 0.071763 0.000000 0.633174
v -0.068374 0.000000 -0.635912
v 0.058597 0.000000 -0.612871
v -0.068374 0.030000 -0.635912
v -0.071164 0.030000 0.621909
v 0.071763 0.030000 0.633174
v 0.000000 0.000000 0.625837
v 0.030034 0.000000 0.607915
v 0.021727 0.000000 -0.635912
v -0.012644 0.000000 -0.650530
v -0.041130 0.030000 0.639831
v 0.000000 0.030000 0.625837
v 0.021727 0.030000 -0.635912
v -0.012644 0.030000 -0.650530
v -0.060068 0.000000 -0.486332
v -0.060068 0.000000 -0.364749
v -0.057490 0.000000 -0.243166
v -0.050875 0.000000 -0.121583
v -0.050875 0.000000 0.000000
v -0.057490 0.000000 0.121583
v -0.060068 0.000000 0.243166
v -0.060068 0.000000 0.364749
v -0.051630 0.000000 0.486332
v 0.060068 0.000000 0.486332
v 0.060068 0.000000 0.364749
v 0.060068 0.000000 0.243166
v 0.069045 0.000000 0.121583
v 0.081837 0.000000 0.000000
v 0.081837 0.000000 -0.121583
v 0.069045 0.000000 -0.243166
v 0.060068 0.000000 -0.364749
v 0.060068 0.000000 -0.486332
v -0.060068 0.030000 -0.486332
v -0.060068 0.030000 -0.364749
v -0.050875 0.030000 -0.121583
v -0.050875 0.030000 0.000000
v -0.057490 0.030000 0.121583
v -0.060068 0.030000 0.243166
v -0.060068 0.030000 0.364749
v -0.051630 0.030000 0.486332
v 0.060068 0.030000 0.486332
v 0.060068 0.030000 0.364749
v 0.069045 0.030000 0.121583
v 0.081837 0.030000 0.000000
v 0.081837 0.030000 -0.121583
v 0.069045 0.030000 -0.243166
v 0.060068 0.030000 -0.364749
v -0.030034 0.030000 0.486332
v -0.030034 0.030000 0.364749
v -0.030034 0.030000 0.243166
v -0.025204 0.030000 0.121583
v -0.016369 0.030000 0.000000
v -0.016369 0.030000 -0.121583
v -0.025204 0.030000 -0.243166
v -0.030034 0.030000 -0.364749
v -0.030034 0.030000 -0.486332
v 0.000000 0.030000 0.486332
v 0.000000 0.030000 0.364749
v 0.000000 0.030000 0.243166
v 0.006945 0.030000 0.121583
v 0.017710 0.030000 0.000000
v 0.017710 0.030000 -0.121583
v 0.006945 0.030000 -0.243166
v 0.000000 0.030000 -0.364749
v 0.000000 0.030000 -0.486332
v 0.030034 0.030000 0.486332
v 0.030034 0.030000 0.364749
v 0.030034 0.030000 0.243166
v 0.038473 0.030000 0.121583
v 0.050674 0.030000 0.000000
v 0.050674 0.030000 -0.121583
v 0.038473 0.030000 -0.243166
v 0.030034 0.030000 -0.364749
v 0.030034 0.030000 -0.486332
v -0.030034 0.000000 -0.486332
v -0.030034 0.000000 -0.364749
v -0.025204 0.000000 -0.243166
v -0.016369 0.000000 -0.121583
v -0.016369 0.000000 0.000000
v -0.025204 0.000000 0.121583
v -0.030034 0.000000 0.243166
v -0.030034 0.000000 0.364749
v -0.030034 0.000000 0.486332
v 0.000000 0.000000 -0.486332
v 0.000000 0.000000 -0.364749
v 0.006945 0.000000 -0.243166
v 0.017710 0.000000 -0.121583
v 0.017710 0.000000 0.000000
v 0.006945 0.000000 0.121583
v 0.000000 0.000000 0.243166
v 0.000000 0.000000 0.364749
v 0.000000 0.000000 0.486332
v 0.030034 0.000000 -0.486332
v 0.030034 0.000000 -0.364749
v 0.038473 0.000000 -0.243166
v 0.050674 0.000000 -0.121583
v 0.050674 0.000000 0.000000
v 0.038473 0.000000 0.121583
v 0.030034 0.000000 0.243166
v 0.030034 0.000000 0.364749
v 0.030034 0.000000 0.486332
v -0.057522 0.010454 -0.243166
v -0.036490 0.030000 -0.243166
v 0.060068 0.030000 0.274530
v 0.060068 0.014552 0.243166
v 0.060068 0.030000 0.227718
v 0.044619 0.030000 0.243166
v 0.030034 0.030000 0.585818
v 0.011058 0.030000 0.619239
v 0.030034 0.007903 0.607915
v 0.048938 0.030000 0.619358
v -0.040356 0.000000 0.629123
v -0.030967 0.000000 0.636373
v -0.041130 0.010736 0.639831
v -0.050349 0.000000 0.634329
v 0.045614 0.030000 -0.486332
v 0.060068 0.030000 -0.471878
v 0.060068 0.015546 -0.486332
v 0.060068 0.030000 -0.500786
v 0.058796 0.012208 -0.612201
v 0.036979 0.030000 -0.625769
v 0.059001 0.030000 -0.593720
v -0.062665 0.000000 -0.639160
v -0.019682 0.000000 -0.650530
v -0.040912 0.000000 -0.627602
v -0.019682 0.030000 -0.650530
v -0.062665 0.030000 -0.639160
v -0.040912 0.030000 -0.627602
vn -0.0000 -1.0000 -0.0000
vn 1.0000 -0.0000 -0.0000
vn -0.0000 1.0000 -0.0000
vn -0.9898 -0.0000 -0.1426
vn -0.5124 -0.0000 0.8587
vn -0.5178 -0.0000 0.8555
vn 0.3914 -0.0000 -0.9202
vn -0.4944 -0.0000 -0.8692
vn -0.0000 -0.0000 -1.0000
vn 0.3518 -0.6482 0.6753
vn 0.3221 -0.0000 0.9467
vn -0.7820 0.4407 0.4407
vn -0.9985 -0.0008 0.0545
vn -0.9985 -0.0000 0.0554
vn -1.0000 -0.0000 -0.0000
vn -0.6749 0.7262 0.1309
vn -0.9985 -0.0000 -0.0543
vn -0.9998 -0.0000 -0.0212
vn -0.9976 -0.0000 0.0692
vn 0.9968 -0.0000 -0.0794
vn 0.6678 0.6678 -0.3289
vn 0.9945 -0.0000 0.1046
vn 0.9945 -0.0000 -0.1046
vn 0.9973 -0.0000 -0.0736
vn 0.5774 0.5773 0.5774
vn 0.5124 -0.0000 0.8587
vn 0.9969 0.0196 0.0761
vn -0.6786 0.7301 -0.0803
vn -0.9998 -0.0008 0.0210
vn 0.7797 0.4427 0.4427
vn -0.4695 -0.6403 0.6080
vn 0.5773 0.5774 -0.5774
vn 0.5389 0.0158 -0.8422
vn 0.7133 0.5009 -0.4901
vn 0.9999 -0.0060 -0.0107
vn 0.4692 -0.0000 -0.8831
vn -0.7337 -0.0000 -0.6794
vt 0.158478 0.872830
vt 0.165172 0.988732
vt 0.136560 0.970939
vt 0.135203 0.872882
vt 0.235016 0.202424
vt 0.235015 0.108208
vt 0.247062 0.108208
vt 0.258263 0.119409
vt 0.258264 0.202424
vt 0.205026 0.872727
vt 0.213699 0.982184
vt 0.197287 0.999988
vt 0.191832 1.000000
vt 0.181752 0.872779
vt 0.055155 0.010915
vt 0.063713 0.016047
vt 0.078360 0.041979
vt 0.078189 0.119074
vt 0.054915 0.119023
vt 0.076726 0.778611
vt 0.100001 0.778663
vt 0.099817 0.861681
vt 0.088591 0.872857
vt 0.076517 0.872830
vt 0.258286 0.105091
vt 0.258289 0.000000
vt 0.281537 0.000000
vt 0.281534 0.105091
vt 0.203820 0.002697
vt 0.211109 0.008299
vt 0.203355 0.118971
vt 0.180080 0.119023
vt 0.179841 0.010915
vt 0.281537 0.114311
vt 0.281537 0.095527
vt 0.289856 0.087207
vt 0.304785 0.087207
vt 0.304785 0.114311
vt 0.304785 0.114311
vt 0.304785 0.152111
vt 0.281537 0.152111
vt 0.281537 0.131435
vt 0.298661 0.114311
vt 0.099767 0.884083
vt 0.098780 0.956099
vt 0.081660 0.980897
vt 0.069823 0.988732
vt 0.304794 0.031784
vt 0.304793 0.060126
vt 0.281545 0.060109
vt 0.281546 0.031767
vt 0.006694 0.872676
vt 0.029969 0.872727
vt 0.021296 0.982184
vt 0.004419 0.991103
vt 0.000000 0.988577
vt 0.053243 0.872779
vt 0.043163 1.000000
vt 0.037708 0.999988
vt 0.285380 0.206185
vt 0.281537 0.206174
vt 0.281537 0.182926
vt 0.285380 0.182937
vt 0.304785 0.065474
vt 0.281537 0.065457
vt 0.156806 0.119074
vt 0.156597 0.024855
vt 0.180289 0.213242
vt 0.157015 0.213294
vt 0.180498 0.307462
vt 0.157224 0.307513
vt 0.175325 0.401693
vt 0.150893 0.401747
vt 0.167192 0.495931
vt 0.141647 0.495988
vt 0.167401 0.590151
vt 0.141856 0.590207
vt 0.175952 0.684352
vt 0.151520 0.684406
vt 0.181543 0.778559
vt 0.158269 0.778611
vt 0.218844 0.004247
vt 0.211690 0.000000
vt 0.203564 0.213191
vt 0.203773 0.307410
vt 0.200239 0.401638
vt 0.193601 0.495873
vt 0.193810 0.590092
vt 0.200866 0.684297
vt 0.204818 0.778508
vt 0.281537 0.081837
vt 0.281537 0.065474
vt 0.304785 0.065474
vt 0.220090 0.118934
vt 0.226838 0.213139
vt 0.227047 0.307359
vt 0.225259 0.401583
vt 0.220342 0.495813
vt 0.220551 0.590033
vt 0.225885 0.684241
vt 0.228092 0.778456
vt 0.228301 0.872676
vt 0.281537 0.229258
vt 0.293448 0.206185
vt 0.300807 0.229258
vt 0.077980 0.213294
vt 0.054706 0.213242
vt 0.077771 0.307513
vt 0.054497 0.307462
vt 0.084102 0.401747
vt 0.059670 0.401693
vt 0.093348 0.495988
vt 0.067803 0.495931
vt 0.093139 0.590207
vt 0.067594 0.590151
vt 0.083475 0.684406
vt 0.059043 0.684352
vt 0.053452 0.778559
vt 0.023305 0.000000
vt 0.031640 0.118971
vt 0.031432 0.213191
vt 0.031223 0.307410
vt 0.034757 0.401638
vt 0.041394 0.495873
vt 0.041185 0.590092
vt 0.034130 0.684296
vt 0.030178 0.778508
vt 0.000000 0.013837
vt 0.014905 0.118934
vt 0.008157 0.213139
vt 0.007948 0.307359
vt 0.009737 0.401582
vt 0.014654 0.495813
vt 0.014445 0.590033
vt 0.006903 0.778456
vt 0.025383 0.684277
vt 0.258287 0.670400
vt 0.258286 0.576190
vt 0.281535 0.576190
vt 0.266388 0.670400
vt 0.258289 0.974740
vt 0.258288 0.858836
vt 0.281536 0.858836
vt 0.281537 0.974740
vt 0.258287 0.764616
vt 0.281536 0.764616
vt 0.009085 0.684241
vt 0.258286 0.481970
vt 0.281534 0.481970
vt 0.258287 0.387741
vt 0.281535 0.387741
vt 0.258287 0.293518
vt 0.281536 0.293518
vt 0.258287 0.199299
vt 0.281536 0.199299
vt 0.235013 0.975806
vt 0.235024 0.861937
vt 0.258272 0.861937
vt 0.258261 0.975806
vt 0.235023 0.767721
vt 0.258271 0.767721
vt 0.089074 0.307538
vt 0.101019 0.319537
vt 0.107794 0.401800
vt 0.258270 0.697809
vt 0.246298 0.673505
vt 0.258286 0.673400
vt 0.235011 0.579350
vt 0.234996 0.485221
vt 0.258245 0.485221
vt 0.258259 0.579350
vt 0.234995 0.391005
vt 0.258243 0.391005
vt 0.235008 0.296702
vt 0.258256 0.296702
vt 0.099792 0.872882
vt 0.304785 0.152135
vt 0.304803 0.165819
vt 0.298679 0.165813
vt 0.281543 0.157149
vt 0.281537 0.152111
vt 0.101464 0.119126
vt 0.101255 0.213345
vt 0.235022 0.673505
vt 0.258270 0.661534
vt 0.117498 0.496041
vt 0.117289 0.590261
vt 0.107167 0.684458
vt 0.133532 0.119126
vt 0.124216 0.005352
vt 0.133741 0.213346
vt 0.133950 0.307565
vt 0.127201 0.401800
vt 0.117498 0.496041
vt 0.117707 0.590261
vt 0.127828 0.684458
vt 0.134994 0.778663
vt 0.101046 0.307565
vt 0.101100 0.283260
vt 0.281537 0.182918
vt 0.093067 0.016020
vt 0.110779 0.005352
vt 0.281537 0.090968
vt 0.234995 0.013837
vt 0.281537 0.265692
vt 0.281537 0.252508
vt 0.292771 0.254736
vt 0.304776 0.000260
vt 0.281537 0.018633
vt 0.295314 0.000000
vt 0.244476 0.010662
vt 0.258286 -0.000000
vt 0.258263 0.024985
vt 0.235015 0.010142
vt 0.258263 0.097008
vt 0.303669 0.182918
vt 0.303669 0.206167
vt 0.281537 0.252506
vt 0.281537 0.229258
vt 0.299334 0.229260
vt 0.299334 0.252508
vt 0.234995 0.988577
vt 0.230577 0.991103
s 0
f 94/1/1 10/2/1 4/3/1 33/4/1
f 32/5/2 33/6/2 119/7/2 118/8/2 48/9/2
f 76/10/1 126/11/1 125/12/1 11/13/1 85/14/1
f 13/15/3 110/16/3 109/17/3 67/18/3 58/19/3
f 74/20/3 48/21/3 118/22/3 117/23/3 75/24/3
f 24/25/4 1/26/4 6/27/4 41/28/4
f 114/29/1 113/30/1 84/31/1 93/32/1 8/33/1
f 1/34/5 116/35/5 115/36/5 12/37/5 6/38/5
f 9/39/6 2/40/6 7/41/6 112/42/6 111/43/6
f 75/24/3 117/23/3 120/44/3 123/45/3 122/46/3 14/47/3
f 10/48/7 11/49/7 15/50/7 14/51/7
f 34/52/3 57/53/3 129/54/3 128/55/3 5/56/3
f 57/53/3 66/57/3 15/58/3 127/59/3 129/54/3
f 66/57/3 75/24/3 14/47/3 15/58/3
f 124/60/8 3/61/8 5/62/8 128/63/8
f 11/49/9 125/64/9 127/65/9 15/50/9
f 85/14/1 11/13/1 10/2/1 94/1/1
f 8/33/1 93/32/1 102/66/1 9/67/1
f 93/32/1 92/68/1 101/69/1 102/66/1
f 92/68/1 91/70/1 100/71/1 101/69/1
f 91/70/1 90/72/1 99/73/1 100/71/1
f 90/72/1 89/74/1 98/75/1 99/73/1
f 89/74/1 88/76/1 97/77/1 98/75/1
f 88/76/1 87/78/1 96/79/1 97/77/1
f 87/78/1 86/80/1 95/81/1 96/79/1
f 86/80/1 85/14/1 94/1/1 95/81/1
f 116/82/10 113/30/10 115/83/10
f 84/31/1 83/84/1 92/68/1 93/32/1
f 83/84/1 82/85/1 91/70/1 92/68/1
f 82/85/1 81/86/1 90/72/1 91/70/1
f 81/86/1 80/87/1 89/74/1 90/72/1
f 80/87/1 79/88/1 88/76/1 89/74/1
f 79/88/1 78/89/1 87/78/1 88/76/1
f 78/89/1 77/90/1 86/80/1 87/78/1
f 77/90/1 76/10/1 85/14/1 86/80/1
f 115/36/11 114/91/11 8/92/11 13/93/11 12/37/11
f 24/94/1 23/95/1 83/84/1 84/31/1
f 23/95/1 22/96/1 82/85/1 83/84/1
f 22/96/1 21/97/1 81/86/1 82/85/1
f 21/97/1 20/98/1 80/87/1 81/86/1
f 20/98/1 19/99/1 79/88/1 80/87/1
f 19/99/1 18/100/1 78/89/1 79/88/1
f 18/100/1 17/101/1 77/90/1 78/89/1
f 17/101/1 16/102/1 76/10/1 77/90/1
f 112/103/12 109/104/12 111/105/12
f 58/19/3 67/18/3 68/106/3 59/107/3
f 59/107/3 68/106/3 69/108/3 60/109/3
f 60/109/3 69/108/3 70/110/3 61/111/3
f 61/111/3 70/110/3 71/112/3 62/113/3
f 62/113/3 71/112/3 72/114/3 63/115/3
f 63/115/3 72/114/3 73/116/3 64/117/3
f 64/117/3 73/116/3 74/20/3 65/118/3
f 65/118/3 74/20/3 75/24/3 66/57/3
f 12/119/3 13/15/3 58/19/3 49/120/3
f 49/120/3 58/19/3 59/107/3 50/121/3
f 50/121/3 59/107/3 60/109/3 51/122/3
f 51/122/3 60/109/3 61/111/3 52/123/3
f 52/123/3 61/111/3 62/113/3 53/124/3
f 53/124/3 62/113/3 63/115/3 54/125/3
f 54/125/3 63/115/3 64/117/3 55/126/3
f 55/126/3 64/117/3 65/118/3 56/127/3
f 56/127/3 65/118/3 66/57/3 57/53/3
f 6/128/3 12/119/3 49/120/3 41/129/3
f 41/129/3 49/120/3 50/121/3 40/130/3
f 40/130/3 50/121/3 51/122/3 39/131/3
f 39/131/3 51/122/3 52/123/3 38/132/3
f 38/132/3 52/123/3 53/124/3 37/133/3
f 37/133/3 53/124/3 54/125/3 36/134/3
f 35/135/3 104/136/3 55/126/3 56/127/3
f 18/137/13 19/138/13 36/139/13 103/140/13
f 35/135/3 56/127/3 57/53/3 34/52/3
f 3/141/14 16/142/14 34/143/14 5/144/14
f 16/142/15 17/145/15 35/146/15 34/143/15
f 36/134/3 54/125/3 55/126/3 104/136/3
f 35/135/16 103/147/16 104/136/16
f 19/138/15 20/148/15 37/149/15 36/139/15
f 20/148/17 21/150/17 38/151/17 37/149/17
f 21/150/18 22/152/18 39/153/18 38/151/18
f 22/152/15 23/154/15 40/155/15 39/153/15
f 23/154/19 24/25/19 41/28/19 40/155/19
f 2/156/20 25/157/20 42/158/20 7/159/20
f 25/157/2 26/160/2 43/161/2 42/158/2
f 69/108/3 108/162/3 107/163/3 44/164/3 70/110/3
f 105/165/21 106/166/21 108/167/21
f 28/168/22 29/169/22 45/170/22 44/171/22
f 29/169/2 30/172/2 46/173/2 45/170/2
f 30/172/23 31/174/23 47/175/23 46/173/23
f 31/174/24 32/5/24 48/9/24 47/175/24
f 120/44/25 117/23/25 119/176/25
f 8/177/26 9/178/26 111/179/26 110/180/26 13/181/26
f 67/18/3 42/182/3 43/183/3 68/106/3
f 26/160/2 27/184/2 106/166/2 105/165/2 43/161/2
f 27/184/27 28/168/27 44/171/27 107/185/27 106/166/27
f 70/110/3 44/164/3 45/186/3 71/112/3
f 71/112/3 45/186/3 46/187/3 72/114/3
f 72/114/3 46/187/3 47/188/3 73/116/3
f 73/116/3 47/188/3 48/21/3 74/20/3
f 9/67/1 102/66/1 25/189/1 2/190/1
f 102/66/1 101/69/1 26/191/1 25/189/1
f 101/69/1 100/71/1 27/192/1 26/191/1
f 100/71/1 99/73/1 28/193/1 27/192/1
f 99/73/1 98/75/1 29/194/1 28/193/1
f 98/75/1 97/77/1 30/195/1 29/194/1
f 97/77/1 96/79/1 31/196/1 30/195/1
f 96/79/1 95/81/1 32/197/1 31/196/1
f 95/81/1 94/1/1 33/4/1 32/197/1
f 103/147/28 36/134/28 104/136/28
f 17/145/29 18/137/29 103/140/29 35/146/29
f 106/198/25 107/163/25 108/162/25
f 68/106/3 43/183/3 105/199/3 108/162/3 69/108/3
f 109/200/30 110/180/30 111/179/30
f 109/17/3 112/201/3 7/202/3 42/182/3 67/18/3
f 113/203/31 114/91/31 115/36/31
f 1/204/1 24/94/1 84/31/1 113/30/1 116/82/1
f 117/205/32 118/206/32 119/207/32
f 4/208/33 10/48/33 14/51/33 122/209/33 121/210/33
f 121/211/34 122/212/34 123/213/34
f 33/6/35 4/214/35 121/211/35 123/213/35 120/215/35 119/7/35
f 124/60/36 128/63/36 129/216/36 126/217/36
f 126/218/37 129/219/37 127/220/37 125/221/37
f 16/102/1 3/222/1 124/223/1 126/11/1 76/10/1
