# Blender 4.1.1
# www.blender.org
o Wooden_Sign
v -0.008715 0.000000 0.025684
v -0.025684 0.000000 0.008715
v -0.025684 2.000000 0.008715
v -0.008715 2.000000 0.025684
v -0.025684 0.000000 -0.008715
v -0.008715 0.000000 -0.025684
v -0.008715 2.000000 -0.025684
v -0.025684 2.000000 -0.008715
v 0.025684 0.000000 0.008715
v 0.008715 0.000000 0.025684
v 0.008715 2.000000 0.025684
v 0.025684 2.000000 0.008715
v 0.008715 0.000000 -0.025684
v 0.025684 0.000000 -0.008715
v 0.025684 2.000000 -0.008715
v 0.008715 2.000000 -0.025684
v -0.007488 0.343096 0.038739
v -0.024457 0.343096 0.021770
v -0.000635 0.730951 0.111648
v -0.017604 0.730951 0.094679
v 0.003847 1.099945 0.159335
v -0.013122 1.099945 0.142366
v -0.000635 1.397617 0.111648
v -0.017604 1.397617 0.094679
v -0.024457 1.676429 0.021770
v -0.007488 1.676429 0.038739
v -0.007488 1.676429 -0.012629
v -0.024457 1.676429 0.004340
v -0.000635 1.397617 0.060279
v -0.017604 1.397617 0.077248
v 0.003847 1.099945 0.107967
v -0.013122 1.099945 0.124936
v -0.000635 0.730951 0.060279
v -0.017604 0.730951 0.077248
v -0.024457 0.343096 0.004340
v -0.007488 0.343096 -0.012629
v 0.026911 1.676429 0.004340
v 0.009942 1.676429 -0.012629
v 0.033764 1.397617 0.077248
v 0.016795 1.397617 0.060279
v 0.038247 1.099945 0.124936
v 0.021278 1.099945 0.107967
v 0.033764 0.730951 0.077248
v 0.016795 0.730951 0.060279
v 0.009942 0.343096 -0.012629
v 0.026911 0.343096 0.004340
v 0.009942 1.676429 0.038739
v 0.026911 1.676429 0.021770
v 0.016795 1.397617 0.111648
v 0.033764 1.397617 0.094679
v 0.021278 1.099945 0.159335
v 0.038247 1.099945 0.142366
v 0.016795 0.730951 0.111648
v 0.033764 0.730951 0.094679
v 0.026911 0.343096 0.021770
v 0.009942 0.343096 0.038739
v 0.030000 1.948361 0.305734
v 0.030000 1.708674 0.293484
v 0.030000 1.978987 -0.293484
v 0.030000 1.820861 0.449413
v 0.030000 1.866800 -0.449413
v 0.030000 1.843831 0.000000
v 0.030000 1.963194 0.015531
v 0.030000 1.931037 0.004457
v 0.030000 1.964436 -0.008785
v 0.030000 1.767615 -0.337642
v 0.030000 1.729609 -0.116125
v 0.030000 1.724872 -0.023435
v 0.030000 1.730911 -0.005771
v 0.030000 1.723102 0.011185
v 0.047191 1.708674 0.293484
v 0.047191 1.978987 -0.293484
v 0.047191 1.948361 0.305734
v 0.047191 1.963194 0.015531
v 0.047191 1.931037 0.004457
v 0.047191 1.964436 -0.008785
v 0.047191 1.729609 -0.116125
v 0.047191 1.767615 -0.337642
v 0.047191 1.724872 -0.023435
v 0.047191 1.730911 -0.005771
v 0.047191 1.723102 0.011185
v 0.030000 1.750640 -0.238702
v 0.030000 1.746584 -0.215064
v 0.030000 1.759004 -0.226883
v 0.047191 1.746584 -0.215064
v 0.047191 1.750640 -0.238702
v 0.047191 1.759004 -0.226883
v 0.047191 1.819475 0.447486
v 0.047191 1.822437 0.447637
v 0.034830 1.820861 0.449413
v 0.046786 1.820917 0.448329
v 0.047191 1.868187 -0.447486
v 0.047191 1.865224 -0.447637
v 0.034830 1.866800 -0.449413
v 0.046786 1.866745 -0.448329
v 0.047191 1.845312 0.000076
v 0.047191 1.842349 -0.000076
v 0.046786 1.843831 0.000000
v 0.199137 1.684743 0.186087
v -0.003082 1.678386 -0.035424
v -0.015058 1.526899 -0.020144
v -0.009070 1.602642 -0.027784
v -0.006076 1.640514 -0.031604
v 0.260360 1.638038 0.262290
v 0.245946 1.640975 0.245863
v 0.233036 1.658882 0.228280
v 0.271205 1.595189 0.282287
v 0.245592 1.610648 0.251173
v 0.273783 1.627798 0.278997
v 0.273252 1.606754 0.282368
v 0.278742 1.611690 0.287486
v 0.274007 1.616304 0.281404
v 0.281509 1.611777 0.290517
v 0.189409 1.534912 0.203532
v 0.182415 1.533106 0.196168
v 0.189292 1.686423 0.195026
v -0.012927 1.680066 -0.026485
v -0.015920 1.642194 -0.022665
v -0.024902 1.528579 -0.011205
v -0.018914 1.604322 -0.018845
v 0.250515 1.639718 0.271229
v 0.236101 1.642655 0.254802
v 0.223191 1.660562 0.237219
v 0.271665 1.613457 0.299456
v 0.261361 1.596869 0.291225
v 0.263408 1.608434 0.291307
v 0.268898 1.613370 0.296425
v 0.235747 1.612328 0.260112
v 0.264163 1.617984 0.290343
v 0.263939 1.629478 0.287936
v 0.179565 1.536592 0.212471
v 0.172570 1.534786 0.205107
v 0.015376 1.513239 0.035094
v -0.166523 1.220561 -0.091710
v -0.202822 1.341021 -0.158096
v -0.238143 1.234142 -0.171223
v -0.235316 1.240820 -0.169742
v -0.240307 1.241326 -0.175182
v 0.029233 1.510256 0.022103
v -0.188965 1.338037 -0.171087
v -0.224286 1.231159 -0.184214
v -0.221459 1.237836 -0.182732
v -0.219408 1.257072 -0.184963
v 0.031028 1.461298 0.063719
v 0.036023 1.444721 0.072855
v 0.026630 1.454221 0.060653
v 0.049880 1.441737 0.059864
v 0.044885 1.458314 0.050728
v 0.040487 1.451237 0.047663
v 0.050420 1.396942 0.099186
v 0.044134 1.386828 0.094804
v 0.057991 1.383844 0.081813
v 0.064277 1.393958 0.086195
v -0.100841 1.421512 -0.067803
v -0.086605 1.432748 -0.055199
v -0.089342 1.417540 -0.059261
v -0.072748 1.429765 -0.068189
v -0.086984 1.418528 -0.080794
v -0.075485 1.414557 -0.072252
v -0.173297 1.221489 -0.127606
v -0.166523 1.220561 -0.091710
v -0.105429 1.254860 -0.062877
vn -0.0000 1.0000 -0.0000
vn 1.0000 -0.0036 -0.0000
vn -0.9998 0.0177 -0.0000
vn -1.0000 -0.0038 -0.0000
vn -0.0000 -0.0380 0.9993
vn -0.0000 0.0380 -0.9993
vn -0.0000 0.0403 0.9992
vn -0.9999 0.0121 -0.0000
vn -0.9999 -0.0151 -0.0000
vn -0.9997 -0.0246 -0.0000
vn -0.0000 -0.2530 -0.9675
vn 1.0000 0.0038 -0.0000
vn 0.9998 -0.0177 -0.0000
vn 0.9999 -0.0121 -0.0000
vn 0.9999 0.0151 -0.0000
vn -0.0000 -0.0403 -0.9992
vn 0.9997 0.0246 -0.0000
vn -0.0000 0.1847 -0.9828
vn -0.0000 0.1282 -0.9918
vn -0.0000 -0.1582 -0.9874
vn -0.0000 -1.0000 -0.0000
vn -0.0000 -0.1847 0.9828
vn -0.0000 -0.1282 0.9918
vn -0.0000 0.1582 0.9874
vn -0.0000 0.2530 0.9675
vn -0.7069 0.0258 0.7069
vn -0.7068 0.0294 -0.7068
vn 0.7069 0.0244 -0.7069
vn 0.7068 -0.0294 0.7068
vn -0.7069 -0.0244 0.7069
vn -0.7020 -0.1196 0.7020
vn -0.7047 -0.0825 0.7047
vn -0.7034 0.1021 0.7034
vn -0.6974 0.1652 0.6974
vn -0.7068 -0.0312 -0.7068
vn -0.6931 -0.1983 -0.6931
vn -0.7017 -0.1230 -0.7017
vn -0.7036 0.0995 -0.7036
vn -0.6997 0.1439 -0.6997
vn 0.7069 -0.0258 -0.7069
vn 0.6974 -0.1652 -0.6974
vn 0.7034 -0.1021 -0.7034
vn 0.7047 0.0825 -0.7047
vn 0.7020 0.1196 -0.7020
vn 0.7068 0.0312 0.7068
vn 0.6931 0.1983 0.6931
vn 0.7017 0.1230 0.7017
vn 0.7036 -0.0995 0.7036
vn 0.6997 -0.1439 0.6997
vn -1.0000 0.0036 -0.0000
vn -1.0000 -0.0000 -0.0000
vn -0.0000 -0.9856 -0.1691
vn 1.0000 -0.0000 -0.0000
vn -0.0000 0.8117 -0.5840
vn -0.0000 0.7480 0.6637
vn -0.0000 -0.9987 -0.0510
vn -0.0000 0.9987 0.0510
vn -0.0000 -0.9462 0.3235
vn -0.0000 0.3256 -0.9455
vn -0.0000 -0.9083 -0.4183
vn -0.0000 0.3686 0.9296
vn -0.0000 -0.7480 -0.6637
vn -0.0000 -0.8163 0.5776
vn -0.0000 -0.6894 -0.7244
vn 0.0812 -0.4858 0.8703
vn 0.0812 0.3944 0.9153
vn 0.0812 0.4858 -0.8703
vn 0.0812 -0.3945 -0.9153
vn 0.9648 0.2627 0.0134
vn 0.9648 -0.2627 -0.0134
vn 0.9648 -0.2626 -0.0134
vn -0.0000 -0.8117 0.5840
vn 0.7345 -0.1253 -0.6669
vn -0.7345 0.1253 0.6669
vn 0.3757 0.8936 0.2458
vn -0.0784 -0.9919 0.1000
vn 0.0784 0.9919 -0.1000
vn 0.4734 -0.6096 0.6359
vn -0.6741 -0.0212 -0.7384
vn 0.5724 0.6424 0.5096
vn 0.1822 0.9831 0.0159
vn 0.2359 -0.8743 0.4241
vn 0.5013 0.7627 0.4087
vn 0.0273 -0.9765 0.2136
vn -0.7207 0.1552 0.6757
vn -0.2552 0.8468 -0.4667
vn 0.7207 -0.1552 -0.6757
vn 0.2552 -0.8468 0.4667
vn -0.5264 -0.0773 -0.8467
vn -0.7210 0.1563 0.6750
vn 0.6446 0.5087 0.5707
vn -0.5999 0.3489 -0.7200
vn 0.4850 -0.5836 0.6513
vn 0.4594 0.8368 0.2979
vn 0.7210 -0.1563 -0.6750
vn 0.2759 0.9583 0.0742
vn -0.6156 0.3049 -0.7267
vn 0.5289 -0.8399 -0.1215
vn -0.1995 -0.9798 0.0123
vt 0.421832 0.727445
vt 0.421832 0.715452
vt 0.427973 0.709310
vt 0.439929 0.709342
vt 0.446069 0.715518
vt 0.446069 0.727511
vt 0.439929 0.733653
vt 0.427973 0.733621
vt 0.092509 0.999998
vt 0.099036 0.828452
vt 0.107751 0.828452
vt 0.101224 0.999998
vt 0.068782 0.828446
vt 0.032328 0.634523
vt 0.041043 0.634523
vt 0.077497 0.828446
vt 0.068782 0.161785
vt 0.075309 0.000000
vt 0.084024 0.000000
vt 0.077497 0.161785
vt 0.301715 0.999402
vt 0.301224 0.828304
vt 0.309938 0.828297
vt 0.310428 0.999394
vt 0.319231 0.999881
vt 0.319595 0.828224
vt 0.328303 0.828216
vt 0.327940 0.999873
vt 0.301224 0.162279
vt 0.301715 0.000363
vt 0.310428 0.000356
vt 0.309938 0.162271
vt 0.008484 0.450030
vt 0.017199 0.450030
vt 0.032328 0.301193
vt 0.041043 0.301193
vt 0.321624 0.300216
vt 0.319595 0.161773
vt 0.328303 0.161765
vt 0.330333 0.300207
vt 0.099036 0.161791
vt 0.092509 0.000006
vt 0.101224 0.000006
vt 0.107752 0.161791
vt 0.135490 0.634528
vt 0.144205 0.634528
vt 0.159334 0.450034
vt 0.168049 0.450034
vt 0.135490 0.301198
vt 0.144205 0.301198
vt 0.319231 0.000205
vt 0.327940 0.000196
vt 0.321624 0.633441
vt 0.330332 0.633433
vt 0.322951 0.448403
vt 0.331660 0.448395
vt 0.421832 0.703131
vt 0.421832 0.691133
vt 0.427977 0.684977
vt 0.439941 0.684987
vt 0.446086 0.691155
vt 0.446086 0.703153
vt 0.439941 0.709310
vt 0.427977 0.709299
vt 0.298483 0.636158
vt 0.307197 0.636150
vt 0.296690 0.452881
vt 0.305404 0.452873
vt 0.298483 0.303145
vt 0.307197 0.303138
vt 0.060298 0.161793
vt 0.066825 0.000008
vt 0.310428 0.999676
vt 0.310792 0.828019
vt 0.084024 0.999992
vt 0.090552 0.828446
vt 0.293073 0.999038
vt 0.292582 0.827941
vt 0.066825 1.000000
vt 0.060298 0.828454
vt 0.075309 0.999992
vt 0.023844 0.634532
vt 0.000000 0.450038
vt 0.023844 0.301201
vt 0.310792 0.161569
vt 0.310429 0.000000
vt 0.312821 0.300011
vt 0.314148 0.448198
vt 0.312821 0.633236
vt 0.090552 0.161784
vt 0.084025 -0.000000
vt 0.127006 0.301192
vt 0.150850 0.450028
vt 0.127006 0.634522
vt 0.292582 0.161915
vt 0.293073 0.000000
vt 0.289841 0.302781
vt 0.288048 0.452517
vt 0.289841 0.635794
vt 0.084024 0.999992
vt 0.168049 0.217533
vt 0.168049 0.074999
vt 0.228048 -0.000000
vt 0.228048 0.224998
vt 0.184389 0.224998
vt 0.417024 0.284561
vt 0.416161 0.333591
vt 0.407583 0.333557
vt 0.408446 0.284527
vt 0.168049 0.374997
vt 0.168049 0.229707
vt 0.228048 0.449996
vt 0.284582 0.224998
vt 0.288048 0.233664
vt 0.288048 0.374997
vt 0.227307 0.674452
vt 0.171516 0.674452
vt 0.168049 0.665785
vt 0.168049 0.619380
vt 0.174000 0.569542
vt 0.179900 0.563324
vt 0.175422 0.557635
vt 0.181373 0.507797
vt 0.227307 0.450380
vt 0.410767 0.759485
vt 0.407583 0.679436
vt 0.416148 0.679564
vt 0.419292 0.758623
vt 0.413173 0.759521
vt 0.407583 0.829150
vt 0.410944 0.759593
vt 0.413350 0.759521
vt 0.419465 0.760194
vt 0.416145 0.828891
vt 0.419069 0.080451
vt 0.417660 0.221122
vt 0.409081 0.221088
vt 0.410490 0.080417
vt 0.410902 0.973841
vt 0.419465 0.973582
vt 0.227307 0.898523
vt 0.168049 0.824450
vt 0.168049 0.683118
vt 0.288048 0.666987
vt 0.271708 0.674452
vt 0.228790 0.674452
vt 0.228790 0.450380
vt 0.288048 0.524453
vt 0.417487 0.238373
vt 0.408908 0.238339
vt 0.410727 0.537487
vt 0.419292 0.537615
vt 0.288048 0.824450
vt 0.228790 0.898523
vt 0.288048 0.679161
vt 0.274724 0.058344
vt 0.280675 0.108182
vt 0.276197 0.113870
vt 0.282097 0.120089
vt 0.288048 0.169927
vt 0.288048 0.216332
vt 0.417360 0.229413
vt 0.408782 0.229379
vt 0.421832 0.900214
vt 0.421832 0.884000
vt 0.430420 0.884104
vt 0.430420 0.900318
vt 0.430426 0.867027
vt 0.430426 0.884000
vt 0.421832 0.883944
vt 0.421832 0.866971
vt 0.431827 0.489761
vt 0.430383 0.543417
vt 0.427974 0.543498
vt 0.421832 0.542852
vt 0.423254 0.490048
vt 0.430853 0.440733
vt 0.422279 0.441020
vt 0.421832 0.434938
vt 0.430406 0.434651
vt 0.421832 0.927013
vt 0.421832 0.918424
vt 0.427891 0.918656
vt 0.427891 0.927245
vt 0.421832 0.937482
vt 0.422556 0.937598
vt 0.423296 0.943540
vt 0.423296 0.937290
vt 0.421832 0.943540
vt 0.422563 0.943727
vt 0.422543 0.949680
vt 0.423315 0.943540
vt 0.228049 0.449996
vt 0.228049 0.674452
vt 0.228049 0.898907
vt 0.416125 0.000010
vt 0.407583 0.000970
vt 0.413715 -0.000000
vt 0.354389 0.183886
vt 0.356093 0.175717
vt 0.361450 0.167510
vt 0.367228 0.166469
vt 0.369621 0.181657
vt 0.369621 0.321189
vt 0.350640 0.322568
vt 0.331660 0.213148
vt 0.345188 0.192423
vt 0.331660 0.323946
vt 0.377792 0.166323
vt 0.372014 0.166121
vt 0.369621 0.163494
vt 0.369621 0.161977
vt 0.406786 0.206529
vt 0.407583 0.210234
vt 0.407583 0.318432
vt 0.384851 0.021912
vt 0.388600 0.160594
vt 0.369620 0.159211
vt 0.369620 0.019679
vt 0.372013 0.004492
vt 0.377791 0.005535
vt 0.383148 0.013743
vt 0.407580 0.051180
vt 0.407580 0.161978
vt 0.394052 0.030452
vt 0.361449 0.004344
vt 0.369620 0.000000
vt 0.369620 0.001516
vt 0.367226 0.004143
vt 0.331660 0.156444
vt 0.331660 0.048247
vt 0.332457 0.044542
vt 0.421832 0.367267
vt 0.428528 0.367300
vt 0.428878 0.394669
vt 0.422182 0.394635
vt 0.425446 0.071123
vt 0.432081 0.071236
vt 0.428466 0.217454
vt 0.421832 0.217341
vt 0.422880 0.217454
vt 0.429576 0.217487
vt 0.421832 0.000000
vt 0.428466 0.000113
vt 0.429446 0.007258
vt 0.422812 0.007145
vt 0.426983 0.810126
vt 0.421832 0.809604
vt 0.421832 0.790656
vt 0.426983 0.791178
vt 0.422602 0.427532
vt 0.429298 0.427566
vt 0.429576 0.434651
vt 0.422880 0.434618
vt 0.426983 0.866971
vt 0.421832 0.866449
vt 0.421832 0.828552
vt 0.426983 0.829075
vt 0.422464 0.416695
vt 0.429160 0.416728
vt 0.422472 0.405732
vt 0.429168 0.405766
vt 0.432095 0.066104
vt 0.425460 0.065991
vt 0.333977 0.514050
vt 0.360580 0.507992
vt 0.368188 0.509387
vt 0.365195 0.666289
vt 0.363195 0.669061
vt 0.331660 0.643907
vt 0.331660 0.519047
vt 0.367194 0.668150
vt 0.431412 0.684545
vt 0.421832 0.684977
vt 0.421832 0.618324
vt 0.431412 0.617893
vt 0.368584 0.499306
vt 0.358593 0.491052
vt 0.366562 0.496549
vt 0.421832 0.484862
vt 0.411428 0.451467
vt 0.408165 0.337760
vt 0.417626 0.338287
vt 0.421832 0.787599
vt 0.429547 0.776939
vt 0.431212 0.790009
vt 0.423882 0.790656
vt 0.369809 0.505891
vt 0.398730 0.499306
vt 0.398730 0.559752
vt 0.394402 0.566324
vt 0.398730 0.568190
vt 0.398730 0.628636
vt 0.399679 0.338166
vt 0.396524 0.344038
vt 0.369876 0.338196
vt 0.373030 0.332324
vt 0.423882 0.734300
vt 0.431212 0.733653
vt 0.424721 0.936721
vt 0.421832 0.937290
vt 0.421832 0.927815
vt 0.424721 0.927245
vt 0.421832 0.900640
vt 0.429633 0.900318
vt 0.429633 0.909907
vt 0.421832 0.910229
vt 0.363784 0.330297
vt 0.360630 0.336169
vt 0.331660 0.329819
vt 0.334814 0.323946
vt 0.407583 0.333591
vt 0.417043 0.334119
vt 0.398883 0.349017
vt 0.399679 0.445891
vt 0.390885 0.481214
vt 0.362280 0.339653
vt 0.332722 0.459165
vt 0.332226 0.398711
vt 0.336537 0.396810
vt 0.332156 0.390272
vt 0.432426 0.610142
vt 0.431404 0.617314
vt 0.421832 0.617893
vt 0.422854 0.610721
vt 0.421832 0.917991
vt 0.421832 0.910229
vt 0.429178 0.910662
vt 0.429178 0.918424
vt 0.421832 0.544076
vt 0.431404 0.543498
vt 0.410992 0.499494
vt 0.417043 0.537487
vt 0.407583 0.536960
s 0
f 15/1/1 16/2/1 7/3/1 8/4/1 3/5/1 4/6/1 11/7/1 12/8/1
f 14/9/2 46/10/2 55/11/2 9/12/2
f 18/13/3 20/14/3 34/15/3 35/16/3
f 25/17/4 3/18/4 8/19/4 28/20/4
f 10/21/5 56/22/5 17/23/5 1/24/5
f 6/25/6 36/26/6 45/27/6 13/28/6
f 47/29/7 11/30/7 4/31/7 26/32/7
f 20/14/8 22/33/8 32/34/8 34/15/8
f 22/33/9 24/35/9 30/36/9 32/34/9
f 24/35/10 25/17/10 28/20/10 30/36/10
f 29/37/11 27/38/11 38/39/11 40/40/11
f 37/41/12 15/42/12 12/43/12 48/44/12
f 46/10/13 43/45/13 54/46/13 55/11/13
f 43/45/14 41/47/14 52/48/14 54/46/14
f 41/47/15 39/49/15 50/50/15 52/48/15
f 27/38/16 7/51/16 16/52/16 38/39/16
f 39/49/17 37/41/17 48/44/17 50/50/17
f 36/26/18 33/53/18 44/54/18 45/27/18
f 33/53/19 31/55/19 42/56/19 44/54/19
f 31/55/20 29/37/20 40/40/20 42/56/20
f 5/57/21 6/58/21 13/59/21 14/60/21 9/61/21 10/62/21 1/63/21 2/64/21
f 56/22/22 53/65/22 19/66/22 17/23/22
f 53/65/23 51/67/23 21/68/23 19/66/23
f 51/67/24 49/69/24 23/70/24 21/68/24
f 49/69/25 47/29/25 26/32/25 23/70/25
f 26/71/26 4/72/26 3/18/26 25/17/26
f 36/26/27 6/25/27 5/73/27 35/74/27
f 46/10/28 14/9/28 13/75/28 45/76/28
f 56/22/29 10/21/29 9/77/29 55/78/29
f 1/79/30 17/80/30 18/13/30 2/81/30
f 17/80/31 19/82/31 20/14/31 18/13/31
f 19/82/32 21/83/32 22/33/32 20/14/32
f 21/83/33 23/84/33 24/35/33 22/33/33
f 23/84/34 26/71/34 25/17/34 24/35/34
f 7/51/35 27/38/35 28/85/35 8/86/35
f 27/38/36 29/37/36 30/87/36 28/85/36
f 29/37/37 31/55/37 32/88/37 30/87/37
f 31/55/38 33/53/38 34/89/38 32/88/38
f 33/53/39 36/26/39 35/74/39 34/89/39
f 15/42/40 37/41/40 38/90/40 16/91/40
f 37/41/41 39/49/41 40/92/41 38/90/41
f 39/49/42 41/47/42 42/93/42 40/92/42
f 41/47/43 43/45/43 44/94/43 42/93/43
f 43/45/44 46/10/44 45/76/44 44/94/44
f 11/30/45 47/29/45 48/95/45 12/96/45
f 47/29/46 49/69/46 50/97/46 48/95/46
f 49/69/47 51/67/47 52/98/47 50/97/47
f 51/67/48 53/65/48 54/99/48 52/98/48
f 53/65/49 56/22/49 55/78/49 54/99/49
f 2/81/50 18/13/50 35/16/50 5/100/50
f 65/101/51 59/102/51 61/103/51 62/104/51 64/105/51
f 67/106/52 83/107/52 85/108/52 77/109/52
f 57/110/51 63/111/51 64/105/51 62/104/51 60/112/51
f 60/112/51 62/104/51 69/113/51 70/114/51 58/115/51
f 97/116/53 80/117/53 79/118/53 77/119/53 85/120/53 87/121/53 86/122/53 78/123/53 93/124/53
f 61/125/54 59/126/54 72/127/54 92/128/54 94/129/54
f 57/130/55 60/131/55 90/132/55 89/133/55 73/134/55
f 58/135/56 70/136/56 81/137/56 71/138/56
f 63/139/57 57/130/57 73/134/57 74/140/57
f 88/141/53 71/142/53 81/143/53 80/117/53 97/116/53
f 76/144/53 75/145/53 96/146/53 92/147/53 72/148/53
f 68/149/56 67/106/56 77/109/56 79/150/56
f 59/126/57 65/151/57 76/152/57 72/127/57
f 73/153/53 89/154/53 96/146/53 75/145/53 74/155/53
f 62/104/51 61/103/51 66/156/51 82/157/51 84/158/51 83/159/51 67/160/51 68/161/51 69/113/51
f 69/162/58 68/149/58 79/150/58 80/163/58
f 64/164/59 63/165/59 74/166/59 75/167/59
f 70/136/60 69/162/60 80/163/60 81/137/60
f 65/168/61 64/169/61 75/170/61 76/171/61
f 66/172/62 61/173/62 94/174/62 93/175/62 78/176/62
f 82/177/63 86/178/63 87/179/63 84/180/63
f 84/181/64 87/182/64 85/183/64 83/184/64
f 82/177/52 66/172/52 78/176/52 86/178/52
f 88/185/65 91/186/65 90/187/65
f 91/186/66 89/188/66 90/187/66
f 92/189/67 95/190/67 94/191/67
f 95/190/68 93/192/68 94/191/68
f 97/116/69 93/124/69 95/193/69 98/194/69
f 98/194/70 95/193/70 92/147/70 96/146/70
f 88/141/69 97/116/69 98/194/69 91/195/69
f 91/195/71 98/194/71 96/146/71 89/154/71
f 60/196/72 58/135/72 71/138/72 88/197/72 90/198/72
f 105/199/73 104/200/73 109/201/73 112/202/73 108/203/73 102/204/73 103/205/73
f 99/206/73 106/207/73 105/199/73 103/205/73 100/208/73
f 107/209/73 110/210/73 111/211/73 113/212/73
f 108/203/73 112/202/73 111/211/73 110/210/73
f 109/201/73 113/212/73 111/211/73 112/202/73
f 108/203/73 110/210/73 107/209/73 114/213/73 115/214/73 101/215/73 102/204/73
f 122/216/74 118/217/74 120/218/74 128/219/74 129/220/74 130/221/74 121/222/74
f 116/223/74 117/224/74 118/217/74 122/216/74 123/225/74
f 125/226/74 124/227/74 127/228/74 126/229/74
f 128/219/74 126/229/74 127/228/74 129/220/74
f 130/221/74 129/220/74 127/228/74 124/227/74
f 128/219/74 120/218/74 119/230/74 132/231/74 131/232/74 125/226/74 126/229/74
f 99/233/75 116/234/75 123/235/75 106/236/75
f 115/237/76 132/238/76 119/239/76 101/240/76
f 100/241/77 117/242/77 116/234/77 99/233/77
f 113/243/78 124/244/78 125/245/78 107/246/78
f 103/247/79 118/248/79 117/249/79 100/250/79
f 109/251/80 130/252/80 124/253/80 113/254/80
f 101/255/79 119/256/79 120/257/79 102/258/79
f 102/258/79 120/257/79 118/248/79 103/247/79
f 104/259/75 121/260/75 130/252/75 109/251/75
f 105/261/81 122/262/81 121/260/81 104/259/81
f 107/246/82 125/245/82 131/263/82 114/264/82
f 106/236/83 123/235/83 122/262/83 105/261/83
f 114/264/84 131/263/84 132/238/84 115/237/84
f 150/265/85 145/266/85 146/267/85 137/268/85 136/269/85 134/270/85 151/271/85
f 136/269/85 137/268/85 138/272/85
f 133/273/86 139/274/86 157/275/86 155/276/86
f 141/277/87 143/278/87 142/279/87
f 134/280/88 161/280/88 162/281/88 152/282/88 151/283/88
f 138/284/89 143/285/89 141/286/89 136/287/89
f 144/288/90 133/289/90 155/290/90 156/291/90 154/292/90 135/293/90 138/272/90 137/268/90 146/267/90
f 150/294/91 153/295/91 147/296/91 145/297/91
f 135/298/92 140/299/92 143/285/92 138/284/92
f 144/300/93 146/301/93 149/302/93 148/303/93
f 146/304/94 145/305/94 147/306/94 149/307/94
f 144/308/91 148/309/91 139/310/91 133/311/91
f 152/282/93 153/312/93 150/313/93 151/283/93
f 152/314/87 162/315/87 160/316/87 141/277/87 142/279/87 149/317/87 147/296/87 153/295/87
f 149/317/95 142/279/95 143/278/95 140/318/95 158/319/95 159/320/95 157/321/95 139/310/95 148/309/95
f 154/322/96 156/323/96 159/324/96 158/325/96
f 156/326/97 155/327/97 157/328/97 159/329/97
f 154/322/86 158/325/86 140/330/86 135/331/86
f 160/332/98 162/281/98 161/280/98
f 136/333/99 141/334/99 160/332/99 161/280/99 134/280/99
